# xmcd CD database file
#
# Track frame offsets:
#	150
#	78789
#	163366
#	235849
#
# Disc length: 3840 seconds
#
# Revision: 0
# Processed by: cddbd v1.5.2PL0 Copyright (c) Steve Scherf et al.
# Submitted via: CDex 1.51
#
DISCID=260efe04
DTITLE=Various Artist - Jazz Master Pieces
DYEAR=2000
DGENRE=Jazz
TTITLE0=01  Miles Davis - Spanish Key
TTITLE1=02  Miles Davis - Tatu
TTITLE2=03  Miles Davis - Black Satin
TTITLE3=04  Miles Davis - All Blues
EXTD=YEAR: 2000
EXTT0=
EXTT1=
EXTT2=
EXTT3=
PLAYORDER=
